# xmcd
#
# Track frame offsets:
#	150
#	15369
#	31673
#	46177
#	64185
#	80038
#	97399
#	114244
#	128174
#	147035
#	167041
#
# Disc length: 2490 seconds
#
# Revision: 4
# Processed by: cddbd v1.5.2PL0 Copyright (c) Steve Scherf et al.
# Submitted via: audiograbber 1.83.01
#
DISCID=8809b80b
DTITLE=Jennifer Nettles - That Girl
DYEAR=2014
DGENRE=Country
TTITLE0=Falling
TTITLE1=Me Without You
TTITLE2=Moneyball
TTITLE3=That Girl
TTITLE4=This Angel
TTITLE5=Jealousy
TTITLE6=This One's For You
TTITLE7=Know You Wanna Know
TTITLE8=Thank You
TTITLE9=Good Time To Cry
TTITLE10=Like A Rock
EXTD=2014 YEAR: 2014
EXTT0=
EXTT1=
EXTT2=
EXTT3=
EXTT4=
EXTT5=
EXTT6=
EXTT7=
EXTT8=
EXTT9=
EXTT10=
PLAYORDER=
